<?xml version="1.0" encoding="utf-8"?>
<!-- Generator: Adobe Illustrator 26.0.2, SVG Export Plug-In . SVG Version: 6.00 Build 0)  -->
<svg version="1.1" id="Layer_1" xmlns="http://www.w3.org/2000/svg" xmlns:xlink="http://www.w3.org/1999/xlink" x="0px" y="0px"
	 viewBox="0 0 1000 1000" style="enable-background:new 0 0 1000 1000;" xml:space="preserve">
<style type="text/css">
	.st0{fill:#FF0000;}
	.st1{fill:#FF0000;stroke:#FF0303;stroke-width:20;stroke-miterlimit:10;}
</style>
<g>
	<g transform="translate(0.000000,511.000000) scale(0.100000,-0.100000)">
		<path class="st0" d="M4769.2,5008.9C2779.9,4906.8,1027.5,3591.6,368.9,1706.3C95.4,922.5,28,52.1,178.2-766.4
			c198.3-1091.9,795.3-2120.2,1642.6-2840.4C2932-4548.5,4339.7-4951,5755.2-4733.4c1323,204.1,2532.3,980.2,3306.5,2118.3
			c1028.3,1513.6,1116.9,3464.4,231.1,5074.3C8524.3,3853.5,7116.6,4802.9,5549.1,4980C5346.9,5003.1,4948.3,5016.6,4769.2,5008.9z
			 M5674.3,4683.5c494.9-75.1,943.6-215.7,1386.5-435.2c1373.1-681.7,2280.1-1937.3,2517-3483.6c46.2-310,46.2-1001.4,0-1309.5
			c-80.9-519.9-219.5-964.8-439.1-1405.8c-238.8-481.4-498.8-843.5-866.6-1211.3C7567.3-3866.8,6683.4-4307.8,5655-4467.6
			c-308.1-46.2-999.4-46.2-1309.5,0c-843.5,129-1627.2,469.9-2264.7,984.1C1193-2767.1,603.8-1723.4,422.7-544.8
			c-46.2,308.1-46.2,1001.4,0,1309.5c157.9,1028.3,597,1910.3,1303.7,2619c776.1,774.1,1771.7,1232.5,2907.9,1336.5
			C4813.5,4735.5,5479.8,4712.3,5674.3,4683.5z"/>
		<path d="M2980.2,2262.8c-50.1-23.1-109.8-77-142.5-125.2l-59.7-82.8l-115.5,11.6c-173.3,17.3-273.5-15.4-379.4-127.1
			c-94.4-96.3-132.9-202.2-132.9-367.8v-77l-94.4,13.5c-194.5,25-383.2-65.5-464.1-225.3c-34.7-65.5-38.5-113.6-38.5-398.6V556.6
			l-171.4-7.7c-148.3-7.7-184.9-15.4-263.8-65.5c-267.7-163.7-267.7-583.5,0-747.2c79-50.1,115.5-57.8,263.8-65.5l171.4-7.7v-327.4
			c0-285,3.9-333.2,38.5-398.6c80.9-159.8,269.6-250.3,464.1-225.3l94.4,13.5v-77c0-169.5,38.5-275.4,132.9-369.7
			c107.8-109.8,209.9-142.5,379.4-125.2l115.5,11.6l59.7-82.8c86.7-125.2,200.3-173.3,379.4-163.7c165.6,7.7,267.7,63.5,352.4,192.6
			l53.9,80.9l5.8,737.6l5.8,737.6h1346h1346.1l5.8-726l5.8-727.9l53.9-92.4c82.8-138.7,181-194.5,358.2-202.2
			c125.2-5.8,159.8,0,233,38.5c48.1,27,113.6,82.8,144.4,127.1l57.8,78.9l115.5-11.5c167.6-15.4,271.5,19.3,377.4,127.1
			c100.2,98.2,132.9,184.9,132.9,344.7v102.1l94.4-13.5c132.9-17.3,271.5,21.2,364,98.2c127.1,109.8,138.6,154.1,138.6,527.6v329.3
			h171.4c150.2,0,182.9,5.8,273.4,53.9c292.7,152.1,310.1,589.3,28.9,764.5c-82.8,50.1-113.6,57.8-283.1,63.5l-190.7,7.7V884
			c0,369.7-11.6,412.1-134.8,523.8c-92.4,82.8-206,115.5-350.5,100.1l-111.7-11.6v102.1c0,157.9-32.7,244.6-132.9,342.8
			c-105.9,107.8-209.9,142.5-377.4,127.1l-115.5-11.6l-57.8,79c-30.8,44.3-96.3,100.1-144.4,127.1c-73.2,38.5-107.8,44.3-234.9,38.5
			s-157.9-13.5-231.1-63.5c-46.2-32.7-104-98.2-131-144.4l-48.1-86.7l-5.8-726l-5.8-727.9H4981H3633V1248
			c0,749.1-5.8,795.3-98.2,910.9C3413.5,2303.3,3159.3,2351.4,2980.2,2262.8z M3334.5,109.8V-1787l-132.9-5.8
			c-94.4-3.8-138.7,1.9-148.3,19.3c-19.3,28.9-23.1,3712.8-5.8,3761c9.6,25,36.6,28.9,150.2,25l136.7-5.8V109.8H3334.5z
			 M6916.4,109.8V-1787l-132.9-5.8c-94.3-3.8-138.6,1.9-148.3,19.3c-19.3,28.9-23.1,3712.8-5.8,3761c9.6,25,36.6,28.9,150.2,25
			l136.7-5.8L6916.4,109.8L6916.4,109.8z M2724.1,1762.1c32.7-32.7,32.7-3271.8,0-3304.5c-30.8-30.8-231.1-30.8-261.9,0
			c-32.7,32.7-32.7,3271.8,0,3304.5C2493,1792.9,2693.3,1792.9,2724.1,1762.1z M7499.9,1762.1c32.7-32.7,32.7-3271.8,0-3304.5
			c-30.8-30.8-231.1-30.8-261.9,0c-32.8,32.7-32.8,3271.8,0,3304.5C7268.8,1792.9,7469.1,1792.9,7499.9,1762.1z M2100.1,1215.2
			c27-11.6,30.8-125.2,30.8-1105.4c0-1234.4,17.3-1116.9-163.7-1116.9c-80.9,0-107.8,7.7-121.3,34.7
			c-23.1,42.4-23.1,2120.2,0,2166.4c13.5,25,40.4,32.7,121.3,32.7C2023.1,1226.8,2082.8,1221,2100.1,1215.2z M8119.9,1190.2
			c11.6-25,19.3-398.6,19.3-1080.3s-7.7-1055.3-19.3-1080.3c-17.3-28.9-42.3-36.6-130.9-36.6c-61.6,0-121.3,9.6-134.8,23.1
			c-32.8,32.7-32.8,2154.9,0,2187.6c13.5,13.5,73.2,23.1,134.8,23.1C8077.6,1226.8,8102.6,1219.1,8119.9,1190.2z M1534,109.8v-154
			h-140.6c-82.8,0-150.2,9.6-163.7,23.1s-23.1,71.2-23.1,131c0,59.7,9.6,117.5,23.1,130.9c13.5,13.5,80.9,23.1,163.7,23.1H1534
			V109.8z M6329,109.8v-154H4981H3633v154.1V264h1348h1348V109.8z M8770.9,240.8c13.5-13.5,23.1-71.2,23.1-130.9
			s-9.6-117.5-23.1-131s-84.7-23.1-182.9-23.1h-159.8v154.1V264H8588C8686.1,263.9,8757.4,254.3,8770.9,240.8z"/>
	</g>
</g>
<line class="st1" x1="157" y1="156.4" x2="842.8" y2="842.2"/>
</svg>
