<svg id="Layer_1" data-name="Layer 1" xmlns="http://www.w3.org/2000/svg" xmlns:xlink="http://www.w3.org/1999/xlink" viewBox="0 0 1920 382.11"><defs><style>.cls-1{fill:none;}.cls-2{fill:#ff8754;}.cls-3{clip-path:url(#clip-path);}.cls-4{fill:#fff;}.cls-5{clip-path:url(#clip-path-2);}</style><clipPath id="clip-path" transform="translate(0 -348.9)"><rect class="cls-1" x="318.03" y="538.88" width="368.55" height="192.22"/></clipPath><clipPath id="clip-path-2" transform="translate(0 -348.9)"><rect class="cls-1" x="970.9" y="591.53" width="40.8" height="52.65"/></clipPath></defs><path class="cls-2" d="M695.61,527.05c49.65-111.86-70.69-258.09-199-125.41C364.59,265.1,241,423.93,302.44,536.72,433.51,518.66,564.56,522,695.61,527.05Z" transform="translate(0 -348.9)"/><g class="cls-3"><path class="cls-2" d="M323.09,568.33C383.23,648.83,496.65,731,496.65,731c12.94-9.21,132.24-95.84,186.19-180.8C562,536.31,443.53,542.31,323.09,568.33Z" transform="translate(0 -348.9)"/></g><path class="cls-4" d="M825.84,721.68l-26-9A17,17,0,0,1,789.33,691l87.14-249.66a17.11,17.11,0,0,1,21.74-10.49l26,9a17,17,0,0,1,10.53,21.66L847.6,711.19A17.15,17.15,0,0,1,825.84,721.68Z" transform="translate(0 -348.9)"/><path class="cls-4" d="M889.16,704.52,875,699.59a15.6,15.6,0,0,1-9.66-19.89L929,497.15a15.72,15.72,0,0,1,20-9.63l14.21,4.94a15.62,15.62,0,0,1,9.67,19.89L909.13,694.9A15.7,15.7,0,0,1,889.16,704.52Z" transform="translate(0 -348.9)"/><path class="cls-4" d="M938.36,673.16a15.61,15.61,0,0,1-9.67-19.89l33.59-96.21a15.69,15.69,0,0,1,29.64,10.28l-33.59,96.19A15.7,15.7,0,0,1,938.36,673.16Z" transform="translate(0 -348.9)"/><g class="cls-5"><path class="cls-4" d="M987.88,643.58l-15.81-5.49,14.77-42.3,15.81,5.49a10,10,0,0,1,6.23,12.83l-8.1,23.26A10.14,10.14,0,0,1,987.88,643.58Z" transform="translate(0 -348.9)"/></g><path class="cls-4" d="M166.93,722.21l26-9a17,17,0,0,0,10.53-21.65L116.29,441.91a17.08,17.08,0,0,0-21.74-10.49l-26,9A17,17,0,0,0,58,462.06l87.16,249.68A17.06,17.06,0,0,0,166.93,722.21Z" transform="translate(0 -348.9)"/><path class="cls-4" d="M103.62,705.08l14.19-4.92a15.63,15.63,0,0,0,9.67-19.91L63.74,497.73a15.68,15.68,0,0,0-20-9.63L29.58,493a15.64,15.64,0,0,0-9.66,19.9L83.65,695.45A15.7,15.7,0,0,0,103.62,705.08Z" transform="translate(0 -348.9)"/><path class="cls-4" d="M54.43,673.73a15.62,15.62,0,0,0,9.66-19.88L30.51,557.64A15.68,15.68,0,0,0,.87,567.9l33.59,96.21A15.7,15.7,0,0,0,54.43,673.73Z" transform="translate(0 -348.9)"/><path class="cls-4" d="M832.32,585.32c-228.54-68.43-442.9-68.38-671.38,0l-12.71-37c236.35-71.61,460.41-71.61,696.78,0C839.93,563.13,837.4,570.51,832.32,585.32Z" transform="translate(0 -348.9)"/><path class="cls-4" d="M1226.81,474.08a3.23,3.23,0,0,1-1,2.39,3.29,3.29,0,0,1-2.3.9h-73.14a1.23,1.23,0,0,0-1.39,1.4v42.69a1.22,1.22,0,0,0,1.39,1.4h45.42a3.38,3.38,0,0,1,3.29,3.29v26.58a3.14,3.14,0,0,1-1,2.3,3,3,0,0,1-2.3,1h-45.42c-.94,0-1.39.45-1.39,1.31v75.36a3.19,3.19,0,0,1-1,2.38,3.1,3.1,0,0,1-2.3.91h-32.09a3.23,3.23,0,0,1-2.3-.91,3.19,3.19,0,0,1-1-2.38V447.51a3,3,0,0,1,1-2.31,3.17,3.17,0,0,1,2.3-1h109.91a3.21,3.21,0,0,1,2.3,1,3,3,0,0,1,1,2.31Z" transform="translate(0 -348.9)"/><path class="cls-4" d="M1256.58,636a3.23,3.23,0,0,1-2.3-.91,3.19,3.19,0,0,1-1-2.38V447.51a3,3,0,0,1,1-2.31,3.17,3.17,0,0,1,2.3-1h32.09a3.37,3.37,0,0,1,3.29,3.29V632.69a3.19,3.19,0,0,1-1,2.38,3.1,3.1,0,0,1-2.3.91Z" transform="translate(0 -348.9)"/><path class="cls-4" d="M1448.64,444.22a3.37,3.37,0,0,1,3.29,3.29v26.82a3.22,3.22,0,0,1-1,2.38,3.1,3.1,0,0,1-2.3.91H1407a1.24,1.24,0,0,0-1.4,1.4V632.69a3.22,3.22,0,0,1-1,2.38,3.1,3.1,0,0,1-2.31.91h-32a3.12,3.12,0,0,1-3.29-3.29V479a1.24,1.24,0,0,0-1.4-1.4H1325.4a3.12,3.12,0,0,1-3.29-3.29V447.51a3.1,3.1,0,0,1,.91-2.31,3.25,3.25,0,0,1,2.38-1Z" transform="translate(0 -348.9)"/><path class="cls-4" d="M1551,444q16.44,0,29.2,7.4A50.12,50.12,0,0,1,1600,472.19q7,13.41,7,30.68,0,17-7,30A49.52,49.52,0,0,1,1580.24,553q-12.77,7.15-29.2,7.16h-29.53c-1,0-1.4.45-1.4,1.32v71.24a3.19,3.19,0,0,1-1,2.38,3.1,3.1,0,0,1-2.3.91h-32.09a3.23,3.23,0,0,1-2.3-.91,3.28,3.28,0,0,1-.91-2.38V447.26a3.07,3.07,0,0,1,.91-2.3,3.14,3.14,0,0,1,2.3-1Zm-6.25,85.47c7.11,0,12.83-2.32,17.11-7s6.42-10.9,6.42-18.75c0-8.07-2.14-14.44-6.42-19.17s-10-7.16-17.11-7.16h-23.28a1.23,1.23,0,0,0-1.4,1.4v49.28a1.22,1.22,0,0,0,1.4,1.39Z" transform="translate(0 -348.9)"/><path class="cls-4" d="M1737.9,636a3.62,3.62,0,0,1-3.87-2.72l-6.33-26.9a1.26,1.26,0,0,0-1.32-1.07h-51.25a1.36,1.36,0,0,0-1.4,1.07l-6.25,26.9a3.49,3.49,0,0,1-3.62,2.72h-33.07c-2.43,0-3.35-1.17-2.8-3.54l49.36-185.51a3.56,3.56,0,0,1,3.79-2.71h39.73a3.64,3.64,0,0,1,3.87,2.71L1774,632.44l.25,1.07c0,1.65-1,2.47-3,2.47Zm-56.76-62.19a1.05,1.05,0,0,0,.24,1.23,1.82,1.82,0,0,0,1.15.41h36.12a1.59,1.59,0,0,0,1.07-.41,1,1,0,0,0,.33-1.23l-18.92-79.47c-.17-.7-.46-1.07-.83-1.07s-.61.37-.82,1.07Z" transform="translate(0 -348.9)"/><path class="cls-4" d="M1806.55,636a3.23,3.23,0,0,1-2.3-.91,3.19,3.19,0,0,1-1-2.38V447.51a3,3,0,0,1,1-2.31,3.17,3.17,0,0,1,2.3-1h32.09a3.37,3.37,0,0,1,3.29,3.29V601.43a1.23,1.23,0,0,0,1.4,1.4h73.38a3.37,3.37,0,0,1,3.29,3.29v26.57a3.19,3.19,0,0,1-1,2.38,3.08,3.08,0,0,1-2.3.91Z" transform="translate(0 -348.9)"/></svg>