<svg xmlns="http://www.w3.org/2000/svg" xmlns:xlink="http://www.w3.org/1999/xlink" width="500" zoomAndPan="magnify" viewBox="0 0 375 374.999991" height="500" preserveAspectRatio="xMidYMid meet" version="1.0"><defs><g/><clipPath id="6f03c04de8"><path d="M 150 170 L 214 170 L 214 203.429688 L 150 203.429688 Z M 150 170 " clip-rule="nonzero"/></clipPath><clipPath id="a4005d5e1f"><path d="M 264 179 L 270.992188 179 L 270.992188 189 L 264 189 Z M 264 179 " clip-rule="nonzero"/></clipPath></defs><path fill="#ff8754" d="M 215.785156 167.628906 C 224.457031 148 203.441406 122.347656 181.035156 145.625 C 157.980469 121.671875 136.394531 149.535156 147.125 169.324219 C 170.011719 166.15625 192.898438 166.738281 215.785156 167.628906 Z M 215.785156 167.628906 " fill-opacity="1" fill-rule="nonzero"/><g clip-path="url(#6f03c04de8)"><path fill="#ff8754" d="M 150.730469 174.867188 C 161.234375 188.992188 181.042969 203.414062 181.042969 203.414062 C 183.300781 201.796875 204.136719 186.597656 213.554688 171.691406 C 192.445312 169.25 171.765625 170.304688 150.730469 174.867188 Z M 150.730469 174.867188 " fill-opacity="1" fill-rule="nonzero"/></g><path fill="#ffffff" d="M 238.527344 201.773438 L 233.988281 200.191406 C 232.433594 199.652344 231.609375 197.949219 232.152344 196.394531 L 247.371094 152.59375 C 247.910156 151.035156 249.609375 150.210938 251.164062 150.753906 L 255.703125 152.332031 C 257.261719 152.871094 258.082031 154.574219 257.542969 156.132812 L 242.324219 199.933594 C 241.78125 201.488281 240.085938 202.3125 238.527344 201.773438 Z M 238.527344 201.773438 " fill-opacity="1" fill-rule="nonzero"/><path fill="#ffffff" d="M 249.585938 198.765625 L 247.105469 197.898438 C 245.675781 197.402344 244.921875 195.839844 245.417969 194.410156 L 256.546875 162.382812 C 257.042969 160.953125 258.601562 160.195312 260.03125 160.691406 L 262.511719 161.558594 C 263.941406 162.054688 264.699219 163.617188 264.199219 165.046875 L 253.070312 197.074219 C 252.574219 198.507812 251.011719 199.261719 249.585938 198.765625 Z M 249.585938 198.765625 " fill-opacity="1" fill-rule="nonzero"/><path fill="#ffffff" d="M 258.175781 193.261719 C 256.746094 192.765625 255.992188 191.203125 256.488281 189.773438 L 262.351562 172.894531 C 262.847656 171.464844 264.410156 170.707031 265.839844 171.207031 C 267.265625 171.703125 268.023438 173.265625 267.527344 174.695312 L 261.660156 191.574219 C 261.164062 193.003906 259.601562 193.761719 258.175781 193.261719 Z M 258.175781 193.261719 " fill-opacity="1" fill-rule="nonzero"/><g clip-path="url(#a4005d5e1f)"><path fill="#ffffff" d="M 266.824219 188.074219 L 264.0625 187.109375 L 266.640625 179.6875 L 269.402344 180.652344 C 270.324219 180.972656 270.8125 181.980469 270.492188 182.902344 L 269.074219 186.984375 C 268.753906 187.90625 267.746094 188.394531 266.824219 188.074219 Z M 266.824219 188.074219 " fill-opacity="1" fill-rule="nonzero"/></g><path fill="#ffffff" d="M 123.460938 201.867188 L 128.003906 200.289062 C 129.558594 199.75 130.378906 198.046875 129.839844 196.492188 L 114.617188 152.6875 C 114.078125 151.132812 112.378906 150.308594 110.824219 150.847656 L 106.28125 152.429688 C 104.726562 152.96875 103.90625 154.671875 104.445312 156.226562 L 119.664062 200.03125 C 120.207031 201.589844 121.90625 202.414062 123.460938 201.867188 Z M 123.460938 201.867188 " fill-opacity="1" fill-rule="nonzero"/><path fill="#ffffff" d="M 112.40625 198.863281 L 114.886719 198 C 116.3125 197.5 117.070312 195.9375 116.574219 194.507812 L 105.445312 162.480469 C 104.949219 161.050781 103.386719 160.296875 101.957031 160.792969 L 99.476562 161.65625 C 98.050781 162.15625 97.292969 163.714844 97.789062 165.148438 L 108.917969 197.175781 C 109.414062 198.601562 110.976562 199.359375 112.40625 198.863281 Z M 112.40625 198.863281 " fill-opacity="1" fill-rule="nonzero"/><path fill="#ffffff" d="M 103.816406 193.363281 C 105.242188 192.863281 106 191.304688 105.503906 189.871094 L 99.636719 172.992188 C 99.140625 171.566406 97.582031 170.808594 96.152344 171.304688 C 94.722656 171.800781 93.964844 173.363281 94.464844 174.796875 L 100.328125 191.671875 C 100.824219 193.105469 102.386719 193.859375 103.816406 193.363281 Z M 103.816406 193.363281 " fill-opacity="1" fill-rule="nonzero"/><path fill="#ffffff" d="M 95.167969 188.171875 L 97.925781 187.210938 L 95.347656 179.789062 L 92.585938 180.75 C 91.664062 181.070312 91.179688 182.078125 91.5 183.003906 L 92.917969 187.082031 C 93.238281 188.003906 94.246094 188.492188 95.167969 188.171875 Z M 95.167969 188.171875 " fill-opacity="1" fill-rule="nonzero"/><path fill="#ffffff" d="M 239.65625 177.851562 C 199.75 165.847656 162.3125 165.851562 122.417969 177.851562 C 121.53125 175.257812 121.085938 173.957031 120.199219 171.363281 C 161.472656 158.800781 200.59375 158.796875 241.875 171.363281 C 240.988281 173.957031 240.542969 175.253906 239.65625 177.851562 Z M 239.65625 177.851562 " fill-opacity="1" fill-rule="nonzero"/><g fill="#ffffff" fill-opacity="1"><g transform="translate(126.924693, 247.484163)"><g><path d="M 19.125 -23.640625 C 19.125 -23.503906 19.078125 -23.390625 18.984375 -23.296875 C 18.890625 -23.203125 18.773438 -23.15625 18.640625 -23.15625 L 7.953125 -23.15625 C 7.828125 -23.15625 7.765625 -23.085938 7.765625 -22.953125 L 7.765625 -16.71875 C 7.765625 -16.582031 7.828125 -16.515625 7.953125 -16.515625 L 14.59375 -16.515625 C 14.726562 -16.515625 14.84375 -16.46875 14.9375 -16.375 C 15.03125 -16.28125 15.078125 -16.171875 15.078125 -16.046875 L 15.078125 -12.15625 C 15.078125 -12.019531 15.03125 -11.90625 14.9375 -11.8125 C 14.84375 -11.726562 14.726562 -11.6875 14.59375 -11.6875 L 7.953125 -11.6875 C 7.828125 -11.6875 7.765625 -11.617188 7.765625 -11.484375 L 7.765625 -0.484375 C 7.765625 -0.347656 7.71875 -0.234375 7.625 -0.140625 C 7.53125 -0.046875 7.414062 0 7.28125 0 L 2.59375 0 C 2.46875 0 2.359375 -0.046875 2.265625 -0.140625 C 2.171875 -0.234375 2.125 -0.347656 2.125 -0.484375 L 2.125 -27.515625 C 2.125 -27.648438 2.171875 -27.765625 2.265625 -27.859375 C 2.359375 -27.953125 2.46875 -28 2.59375 -28 L 18.640625 -28 C 18.773438 -28 18.890625 -27.953125 18.984375 -27.859375 C 19.078125 -27.765625 19.125 -27.648438 19.125 -27.515625 Z M 19.125 -23.640625 "/></g></g></g><g fill="#ffffff" fill-opacity="1"><g transform="translate(147.802743, 247.484163)"><g><path d="M 2.59375 0 C 2.46875 0 2.359375 -0.046875 2.265625 -0.140625 C 2.171875 -0.234375 2.125 -0.347656 2.125 -0.484375 L 2.125 -27.515625 C 2.125 -27.648438 2.171875 -27.765625 2.265625 -27.859375 C 2.359375 -27.953125 2.46875 -28 2.59375 -28 L 7.28125 -28 C 7.414062 -28 7.53125 -27.953125 7.625 -27.859375 C 7.71875 -27.765625 7.765625 -27.648438 7.765625 -27.515625 L 7.765625 -0.484375 C 7.765625 -0.347656 7.71875 -0.234375 7.625 -0.140625 C 7.53125 -0.046875 7.414062 0 7.28125 0 Z M 2.59375 0 "/></g></g></g><g fill="#ffffff" fill-opacity="1"><g transform="translate(158.921758, 247.484163)"><g><path d="M 19.515625 -28 C 19.648438 -28 19.765625 -27.953125 19.859375 -27.859375 C 19.953125 -27.765625 20 -27.648438 20 -27.515625 L 20 -23.59375 C 20 -23.46875 19.953125 -23.359375 19.859375 -23.265625 C 19.765625 -23.171875 19.648438 -23.125 19.515625 -23.125 L 13.4375 -23.125 C 13.300781 -23.125 13.234375 -23.054688 13.234375 -22.921875 L 13.234375 -0.484375 C 13.234375 -0.347656 13.1875 -0.234375 13.09375 -0.140625 C 13 -0.046875 12.890625 0 12.765625 0 L 8.078125 0 C 7.941406 0 7.828125 -0.046875 7.734375 -0.140625 C 7.640625 -0.234375 7.59375 -0.347656 7.59375 -0.484375 L 7.59375 -22.921875 C 7.59375 -23.054688 7.53125 -23.125 7.40625 -23.125 L 1.515625 -23.125 C 1.378906 -23.125 1.265625 -23.171875 1.171875 -23.265625 C 1.085938 -23.359375 1.046875 -23.46875 1.046875 -23.59375 L 1.046875 -27.515625 C 1.046875 -27.648438 1.085938 -27.765625 1.171875 -27.859375 C 1.265625 -27.953125 1.378906 -28 1.515625 -28 Z M 19.515625 -28 "/></g></g></g><g fill="#ffffff" fill-opacity="1"><g transform="translate(181.239675, 247.484163)"><g><path d="M 12.15625 -28.046875 C 13.757812 -28.046875 15.179688 -27.679688 16.421875 -26.953125 C 17.660156 -26.234375 18.617188 -25.21875 19.296875 -23.90625 C 19.972656 -22.601562 20.3125 -21.113281 20.3125 -19.4375 C 20.3125 -17.78125 19.972656 -16.316406 19.296875 -15.046875 C 18.617188 -13.785156 17.660156 -12.804688 16.421875 -12.109375 C 15.179688 -11.421875 13.757812 -11.078125 12.15625 -11.078125 L 7.84375 -11.078125 C 7.707031 -11.078125 7.640625 -11.007812 7.640625 -10.875 L 7.640625 -0.484375 C 7.640625 -0.347656 7.59375 -0.234375 7.5 -0.140625 C 7.40625 -0.046875 7.289062 0 7.15625 0 L 2.484375 0 C 2.347656 0 2.234375 -0.046875 2.140625 -0.140625 C 2.046875 -0.234375 2 -0.347656 2 -0.484375 L 2 -27.5625 C 2 -27.695312 2.046875 -27.8125 2.140625 -27.90625 C 2.234375 -28 2.347656 -28.046875 2.484375 -28.046875 Z M 11.234375 -15.5625 C 12.273438 -15.5625 13.109375 -15.898438 13.734375 -16.578125 C 14.367188 -17.253906 14.6875 -18.164062 14.6875 -19.3125 C 14.6875 -20.488281 14.367188 -21.421875 13.734375 -22.109375 C 13.109375 -22.804688 12.273438 -23.15625 11.234375 -23.15625 L 7.84375 -23.15625 C 7.707031 -23.15625 7.640625 -23.085938 7.640625 -22.953125 L 7.640625 -15.765625 C 7.640625 -15.628906 7.707031 -15.5625 7.84375 -15.5625 Z M 11.234375 -15.5625 "/></g></g></g><g fill="#ffffff" fill-opacity="1"><g transform="translate(203.757559, 247.484163)"><g><path d="M 16.921875 0 C 16.628906 0 16.441406 -0.132812 16.359375 -0.40625 L 15.4375 -4.3125 C 15.414062 -4.425781 15.347656 -4.484375 15.234375 -4.484375 L 7.765625 -4.484375 C 7.648438 -4.484375 7.582031 -4.425781 7.5625 -4.3125 L 6.640625 -0.40625 C 6.554688 -0.132812 6.382812 0 6.125 0 L 1.28125 0 C 0.9375 0 0.800781 -0.171875 0.875 -0.515625 L 8.078125 -27.59375 C 8.160156 -27.863281 8.347656 -28 8.640625 -28 L 14.4375 -28 C 14.726562 -28 14.914062 -27.863281 15 -27.59375 L 22.203125 -0.515625 L 22.234375 -0.359375 C 22.234375 -0.117188 22.085938 0 21.796875 0 Z M 8.640625 -9.078125 C 8.609375 -8.992188 8.617188 -8.929688 8.671875 -8.890625 C 8.734375 -8.859375 8.789062 -8.84375 8.84375 -8.84375 L 14.125 -8.84375 C 14.175781 -8.84375 14.226562 -8.859375 14.28125 -8.890625 C 14.332031 -8.929688 14.34375 -8.992188 14.3125 -9.078125 L 11.5625 -20.6875 C 11.53125 -20.789062 11.488281 -20.84375 11.4375 -20.84375 C 11.382812 -20.84375 11.34375 -20.789062 11.3125 -20.6875 Z M 8.640625 -9.078125 "/></g></g></g><g fill="#ffffff" fill-opacity="1"><g transform="translate(228.115258, 247.484163)"><g><path d="M 2.59375 0 C 2.46875 0 2.359375 -0.046875 2.265625 -0.140625 C 2.171875 -0.234375 2.125 -0.347656 2.125 -0.484375 L 2.125 -27.515625 C 2.125 -27.648438 2.171875 -27.765625 2.265625 -27.859375 C 2.359375 -27.953125 2.46875 -28 2.59375 -28 L 7.28125 -28 C 7.414062 -28 7.53125 -27.953125 7.625 -27.859375 C 7.71875 -27.765625 7.765625 -27.648438 7.765625 -27.515625 L 7.765625 -5.046875 C 7.765625 -4.910156 7.828125 -4.84375 7.953125 -4.84375 L 18.6875 -4.84375 C 18.8125 -4.84375 18.921875 -4.796875 19.015625 -4.703125 C 19.109375 -4.609375 19.15625 -4.492188 19.15625 -4.359375 L 19.15625 -0.484375 C 19.15625 -0.347656 19.109375 -0.234375 19.015625 -0.140625 C 18.921875 -0.046875 18.8125 0 18.6875 0 Z M 2.59375 0 "/></g></g></g><g fill="#ff8754" fill-opacity="1"><g transform="translate(68.570318, 276.734161)"><g><path d="M 5.828125 -0.015625 C 5.640625 -0.015625 5.546875 -0.113281 5.546875 -0.3125 L 5.546875 -6.859375 C 5.546875 -6.890625 5.53125 -6.9375 5.5 -7 L 0.921875 -15.28125 C 0.890625 -15.375 0.875 -15.425781 0.875 -15.4375 C 0.875 -15.5 0.894531 -15.546875 0.9375 -15.578125 C 0.976562 -15.617188 1.035156 -15.640625 1.109375 -15.640625 L 2.1875 -15.640625 C 2.351562 -15.640625 2.46875 -15.570312 2.53125 -15.4375 L 6.25 -8.6875 C 6.300781 -8.632812 6.347656 -8.632812 6.390625 -8.6875 L 10.140625 -15.4375 C 10.210938 -15.570312 10.328125 -15.640625 10.484375 -15.640625 L 11.546875 -15.640625 C 11.671875 -15.640625 11.75 -15.601562 11.78125 -15.53125 C 11.820312 -15.46875 11.8125 -15.382812 11.75 -15.28125 L 7.171875 -7 C 7.140625 -6.9375 7.125 -6.890625 7.125 -6.859375 L 7.125 -0.3125 C 7.125 -0.113281 7.03125 -0.015625 6.84375 -0.015625 Z M 5.828125 -0.015625 "/></g></g></g><g fill="#ff8754" fill-opacity="1"><g transform="translate(81.956828, 276.734161)"><g><path d="M 6.921875 0.171875 C 5.867188 0.171875 4.9375 -0.0390625 4.125 -0.46875 C 3.320312 -0.894531 2.703125 -1.5 2.265625 -2.28125 C 1.828125 -3.070312 1.609375 -3.976562 1.609375 -5 L 1.609375 -10.640625 C 1.609375 -11.660156 1.828125 -12.5625 2.265625 -13.34375 C 2.703125 -14.125 3.320312 -14.726562 4.125 -15.15625 C 4.9375 -15.59375 5.867188 -15.8125 6.921875 -15.8125 C 7.984375 -15.8125 8.921875 -15.59375 9.734375 -15.15625 C 10.546875 -14.726562 11.171875 -14.125 11.609375 -13.34375 C 12.046875 -12.5625 12.265625 -11.660156 12.265625 -10.640625 L 12.265625 -5 C 12.265625 -3.976562 12.046875 -3.070312 11.609375 -2.28125 C 11.171875 -1.5 10.546875 -0.894531 9.734375 -0.46875 C 8.921875 -0.0390625 7.984375 0.171875 6.921875 0.171875 Z M 6.921875 -1.1875 C 8.054688 -1.1875 8.96875 -1.523438 9.65625 -2.203125 C 10.34375 -2.890625 10.6875 -3.800781 10.6875 -4.9375 L 10.6875 -10.65625 C 10.6875 -11.789062 10.34375 -12.703125 9.65625 -13.390625 C 8.96875 -14.085938 8.054688 -14.4375 6.921875 -14.4375 C 5.804688 -14.4375 4.90625 -14.085938 4.21875 -13.390625 C 3.53125 -12.703125 3.1875 -11.789062 3.1875 -10.65625 L 3.1875 -4.9375 C 3.1875 -3.800781 3.53125 -2.890625 4.21875 -2.203125 C 4.90625 -1.523438 5.804688 -1.1875 6.921875 -1.1875 Z M 6.921875 -1.1875 "/></g></g></g><g fill="#ff8754" fill-opacity="1"><g transform="translate(96.572451, 276.734161)"><g><path d="M 7.234375 0.171875 C 6.191406 0.171875 5.269531 -0.0351562 4.46875 -0.453125 C 3.664062 -0.867188 3.039062 -1.453125 2.59375 -2.203125 C 2.144531 -2.953125 1.921875 -3.828125 1.921875 -4.828125 L 1.921875 -15.34375 C 1.921875 -15.539062 2.019531 -15.640625 2.21875 -15.640625 L 3.21875 -15.640625 C 3.414062 -15.640625 3.515625 -15.539062 3.515625 -15.34375 L 3.515625 -4.78125 C 3.515625 -3.71875 3.851562 -2.851562 4.53125 -2.1875 C 5.21875 -1.53125 6.117188 -1.203125 7.234375 -1.203125 C 8.359375 -1.203125 9.257812 -1.53125 9.9375 -2.1875 C 10.625 -2.851562 10.96875 -3.71875 10.96875 -4.78125 L 10.96875 -15.34375 C 10.96875 -15.539062 11.066406 -15.640625 11.265625 -15.640625 L 12.265625 -15.640625 C 12.460938 -15.640625 12.5625 -15.539062 12.5625 -15.34375 L 12.5625 -4.828125 C 12.5625 -3.828125 12.335938 -2.953125 11.890625 -2.203125 C 11.453125 -1.453125 10.832031 -0.867188 10.03125 -0.453125 C 9.226562 -0.0351562 8.296875 0.171875 7.234375 0.171875 Z M 7.234375 0.171875 "/></g></g></g><g fill="#ff8754" fill-opacity="1"><g transform="translate(111.769127, 276.734161)"><g><path d="M 11.28125 0 C 11.113281 0 10.992188 -0.0703125 10.921875 -0.21875 L 7.65625 -7.109375 C 7.632812 -7.160156 7.59375 -7.1875 7.53125 -7.1875 L 3.796875 -7.1875 C 3.722656 -7.1875 3.6875 -7.148438 3.6875 -7.078125 L 3.6875 -0.296875 C 3.6875 -0.0976562 3.585938 0 3.390625 0 L 2.390625 0 C 2.191406 0 2.09375 -0.0976562 2.09375 -0.296875 L 2.09375 -15.375 C 2.09375 -15.5625 2.191406 -15.65625 2.390625 -15.65625 L 8.109375 -15.65625 C 9.390625 -15.65625 10.425781 -15.257812 11.21875 -14.46875 C 12.007812 -13.6875 12.40625 -12.65625 12.40625 -11.375 C 12.40625 -10.332031 12.125 -9.445312 11.5625 -8.71875 C 11 -8 10.234375 -7.53125 9.265625 -7.3125 C 9.191406 -7.289062 9.171875 -7.242188 9.203125 -7.171875 L 12.53125 -0.328125 C 12.5625 -0.273438 12.578125 -0.234375 12.578125 -0.203125 C 12.578125 -0.0664062 12.488281 0 12.3125 0 Z M 3.796875 -14.28125 C 3.722656 -14.28125 3.6875 -14.242188 3.6875 -14.171875 L 3.6875 -8.578125 C 3.6875 -8.503906 3.722656 -8.46875 3.796875 -8.46875 L 7.9375 -8.46875 C 8.800781 -8.46875 9.5 -8.726562 10.03125 -9.25 C 10.570312 -9.78125 10.84375 -10.476562 10.84375 -11.34375 C 10.84375 -12.207031 10.570312 -12.910156 10.03125 -13.453125 C 9.5 -14.003906 8.800781 -14.28125 7.9375 -14.28125 Z M 3.796875 -14.28125 "/></g></g></g><g fill="#ff8754" fill-opacity="1"><g transform="translate(126.161305, 276.734161)"><g/></g></g><g fill="#ff8754" fill-opacity="1"><g transform="translate(131.346236, 276.734161)"><g><path d="M 6.859375 0.171875 C 5.816406 0.171875 4.898438 -0.03125 4.109375 -0.4375 C 3.316406 -0.84375 2.703125 -1.414062 2.265625 -2.15625 C 1.828125 -2.90625 1.609375 -3.765625 1.609375 -4.734375 L 1.609375 -10.90625 C 1.609375 -11.875 1.828125 -12.726562 2.265625 -13.46875 C 2.703125 -14.21875 3.316406 -14.796875 4.109375 -15.203125 C 4.898438 -15.609375 5.816406 -15.8125 6.859375 -15.8125 C 7.890625 -15.8125 8.800781 -15.609375 9.59375 -15.203125 C 10.394531 -14.804688 11.007812 -14.25 11.4375 -13.53125 C 11.875 -12.8125 12.09375 -11.992188 12.09375 -11.078125 L 12.09375 -10.859375 C 12.09375 -10.660156 11.992188 -10.5625 11.796875 -10.5625 L 10.796875 -10.5625 C 10.597656 -10.5625 10.5 -10.644531 10.5 -10.8125 L 10.5 -11.0625 C 10.5 -12.0625 10.164062 -12.875 9.5 -13.5 C 8.84375 -14.125 7.960938 -14.4375 6.859375 -14.4375 C 5.753906 -14.4375 4.863281 -14.113281 4.1875 -13.46875 C 3.519531 -12.832031 3.1875 -11.992188 3.1875 -10.953125 L 3.1875 -4.6875 C 3.1875 -3.644531 3.53125 -2.800781 4.21875 -2.15625 C 4.90625 -1.519531 5.804688 -1.203125 6.921875 -1.203125 C 8.015625 -1.203125 8.882812 -1.5 9.53125 -2.09375 C 10.175781 -2.695312 10.5 -3.492188 10.5 -4.484375 L 10.5 -6.5 C 10.5 -6.570312 10.460938 -6.609375 10.390625 -6.609375 L 7.1875 -6.609375 C 7 -6.609375 6.90625 -6.707031 6.90625 -6.90625 L 6.90625 -7.703125 C 6.90625 -7.898438 7 -8 7.1875 -8 L 11.796875 -8 C 11.992188 -8 12.09375 -7.898438 12.09375 -7.703125 L 12.09375 -4.890625 C 12.09375 -3.296875 11.617188 -2.050781 10.671875 -1.15625 C 9.722656 -0.269531 8.453125 0.171875 6.859375 0.171875 Z M 6.859375 0.171875 "/></g></g></g><g fill="#ff8754" fill-opacity="1"><g transform="translate(145.604306, 276.734161)"><g><path d="M 5.828125 -0.015625 C 5.640625 -0.015625 5.546875 -0.113281 5.546875 -0.3125 L 5.546875 -6.859375 C 5.546875 -6.890625 5.53125 -6.9375 5.5 -7 L 0.921875 -15.28125 C 0.890625 -15.375 0.875 -15.425781 0.875 -15.4375 C 0.875 -15.5 0.894531 -15.546875 0.9375 -15.578125 C 0.976562 -15.617188 1.035156 -15.640625 1.109375 -15.640625 L 2.1875 -15.640625 C 2.351562 -15.640625 2.46875 -15.570312 2.53125 -15.4375 L 6.25 -8.6875 C 6.300781 -8.632812 6.347656 -8.632812 6.390625 -8.6875 L 10.140625 -15.4375 C 10.210938 -15.570312 10.328125 -15.640625 10.484375 -15.640625 L 11.546875 -15.640625 C 11.671875 -15.640625 11.75 -15.601562 11.78125 -15.53125 C 11.820312 -15.46875 11.8125 -15.382812 11.75 -15.28125 L 7.171875 -7 C 7.140625 -6.9375 7.125 -6.890625 7.125 -6.859375 L 7.125 -0.3125 C 7.125 -0.113281 7.03125 -0.015625 6.84375 -0.015625 Z M 5.828125 -0.015625 "/></g></g></g><g fill="#ff8754" fill-opacity="1"><g transform="translate(158.990809, 276.734161)"><g><path d="M 2.390625 0 C 2.191406 0 2.09375 -0.0976562 2.09375 -0.296875 L 2.09375 -15.34375 C 2.09375 -15.539062 2.191406 -15.640625 2.390625 -15.640625 L 3.4375 -15.640625 C 3.570312 -15.640625 3.6875 -15.570312 3.78125 -15.4375 L 7.859375 -8.984375 C 7.910156 -8.890625 7.957031 -8.890625 8 -8.984375 L 12.109375 -15.4375 C 12.203125 -15.570312 12.316406 -15.640625 12.453125 -15.640625 L 13.5 -15.640625 C 13.6875 -15.640625 13.78125 -15.539062 13.78125 -15.34375 L 13.78125 -0.296875 C 13.78125 -0.0976562 13.6875 0 13.5 0 L 12.484375 0 C 12.296875 0 12.203125 -0.0976562 12.203125 -0.296875 L 12.203125 -12.625 C 12.203125 -12.6875 12.1875 -12.71875 12.15625 -12.71875 C 12.125 -12.71875 12.09375 -12.691406 12.0625 -12.640625 L 8.53125 -7.0625 C 8.445312 -6.925781 8.335938 -6.859375 8.203125 -6.859375 L 7.6875 -6.859375 C 7.550781 -6.859375 7.4375 -6.925781 7.34375 -7.0625 L 3.828125 -12.640625 C 3.796875 -12.691406 3.765625 -12.71875 3.734375 -12.71875 C 3.703125 -12.71875 3.6875 -12.6875 3.6875 -12.625 L 3.6875 -0.296875 C 3.6875 -0.0976562 3.585938 0 3.390625 0 Z M 2.390625 0 "/></g></g></g><g fill="#ff8754" fill-opacity="1"><g transform="translate(175.595383, 276.734161)"><g/></g></g><g fill="#ff8754" fill-opacity="1"><g transform="translate(180.780331, 276.734161)"><g><path d="M 6.859375 0.203125 C 5.816406 0.203125 4.898438 0 4.109375 -0.40625 C 3.316406 -0.820312 2.703125 -1.40625 2.265625 -2.15625 C 1.828125 -2.90625 1.609375 -3.773438 1.609375 -4.765625 L 1.609375 -10.90625 C 1.609375 -11.875 1.828125 -12.726562 2.265625 -13.46875 C 2.703125 -14.21875 3.316406 -14.796875 4.109375 -15.203125 C 4.898438 -15.609375 5.816406 -15.8125 6.859375 -15.8125 C 7.898438 -15.8125 8.816406 -15.609375 9.609375 -15.203125 C 10.398438 -14.804688 11.015625 -14.242188 11.453125 -13.515625 C 11.890625 -12.785156 12.109375 -11.945312 12.109375 -11 C 12.109375 -10.863281 12.007812 -10.78125 11.8125 -10.75 L 10.8125 -10.6875 L 10.75 -10.6875 C 10.6875 -10.6875 10.632812 -10.695312 10.59375 -10.71875 C 10.550781 -10.75 10.53125 -10.78125 10.53125 -10.8125 L 10.53125 -10.953125 C 10.53125 -12.003906 10.191406 -12.847656 9.515625 -13.484375 C 8.847656 -14.117188 7.960938 -14.4375 6.859375 -14.4375 C 5.753906 -14.4375 4.863281 -14.113281 4.1875 -13.46875 C 3.519531 -12.832031 3.1875 -11.992188 3.1875 -10.953125 L 3.1875 -4.6875 C 3.1875 -3.644531 3.519531 -2.800781 4.1875 -2.15625 C 4.863281 -1.519531 5.753906 -1.203125 6.859375 -1.203125 C 7.960938 -1.203125 8.847656 -1.519531 9.515625 -2.15625 C 10.191406 -2.789062 10.53125 -3.632812 10.53125 -4.6875 C 10.53125 -4.863281 10.625 -4.945312 10.8125 -4.9375 L 11.8125 -4.890625 C 12.007812 -4.890625 12.109375 -4.851562 12.109375 -4.78125 L 12.109375 -4.671875 C 12.109375 -3.703125 11.890625 -2.847656 11.453125 -2.109375 C 11.015625 -1.367188 10.398438 -0.796875 9.609375 -0.390625 C 8.816406 0.00390625 7.898438 0.203125 6.859375 0.203125 Z M 6.859375 0.203125 "/></g></g></g><g fill="#ff8754" fill-opacity="1"><g transform="translate(195.060755, 276.734161)"><g><path d="M 6.921875 0.171875 C 5.867188 0.171875 4.9375 -0.0390625 4.125 -0.46875 C 3.320312 -0.894531 2.703125 -1.5 2.265625 -2.28125 C 1.828125 -3.070312 1.609375 -3.976562 1.609375 -5 L 1.609375 -10.640625 C 1.609375 -11.660156 1.828125 -12.5625 2.265625 -13.34375 C 2.703125 -14.125 3.320312 -14.726562 4.125 -15.15625 C 4.9375 -15.59375 5.867188 -15.8125 6.921875 -15.8125 C 7.984375 -15.8125 8.921875 -15.59375 9.734375 -15.15625 C 10.546875 -14.726562 11.171875 -14.125 11.609375 -13.34375 C 12.046875 -12.5625 12.265625 -11.660156 12.265625 -10.640625 L 12.265625 -5 C 12.265625 -3.976562 12.046875 -3.070312 11.609375 -2.28125 C 11.171875 -1.5 10.546875 -0.894531 9.734375 -0.46875 C 8.921875 -0.0390625 7.984375 0.171875 6.921875 0.171875 Z M 6.921875 -1.1875 C 8.054688 -1.1875 8.96875 -1.523438 9.65625 -2.203125 C 10.34375 -2.890625 10.6875 -3.800781 10.6875 -4.9375 L 10.6875 -10.65625 C 10.6875 -11.789062 10.34375 -12.703125 9.65625 -13.390625 C 8.96875 -14.085938 8.054688 -14.4375 6.921875 -14.4375 C 5.804688 -14.4375 4.90625 -14.085938 4.21875 -13.390625 C 3.53125 -12.703125 3.1875 -11.789062 3.1875 -10.65625 L 3.1875 -4.9375 C 3.1875 -3.800781 3.53125 -2.890625 4.21875 -2.203125 C 4.90625 -1.523438 5.804688 -1.1875 6.921875 -1.1875 Z M 6.921875 -1.1875 "/></g></g></g><g fill="#ff8754" fill-opacity="1"><g transform="translate(209.676391, 276.734161)"><g><path d="M 2.390625 0 C 2.191406 0 2.09375 -0.0976562 2.09375 -0.296875 L 2.09375 -15.34375 C 2.09375 -15.539062 2.191406 -15.640625 2.390625 -15.640625 L 3.4375 -15.640625 C 3.570312 -15.640625 3.6875 -15.570312 3.78125 -15.4375 L 7.859375 -8.984375 C 7.910156 -8.890625 7.957031 -8.890625 8 -8.984375 L 12.109375 -15.4375 C 12.203125 -15.570312 12.316406 -15.640625 12.453125 -15.640625 L 13.5 -15.640625 C 13.6875 -15.640625 13.78125 -15.539062 13.78125 -15.34375 L 13.78125 -0.296875 C 13.78125 -0.0976562 13.6875 0 13.5 0 L 12.484375 0 C 12.296875 0 12.203125 -0.0976562 12.203125 -0.296875 L 12.203125 -12.625 C 12.203125 -12.6875 12.1875 -12.71875 12.15625 -12.71875 C 12.125 -12.71875 12.09375 -12.691406 12.0625 -12.640625 L 8.53125 -7.0625 C 8.445312 -6.925781 8.335938 -6.859375 8.203125 -6.859375 L 7.6875 -6.859375 C 7.550781 -6.859375 7.4375 -6.925781 7.34375 -7.0625 L 3.828125 -12.640625 C 3.796875 -12.691406 3.765625 -12.71875 3.734375 -12.71875 C 3.703125 -12.71875 3.6875 -12.6875 3.6875 -12.625 L 3.6875 -0.296875 C 3.6875 -0.0976562 3.585938 0 3.390625 0 Z M 2.390625 0 "/></g></g></g><g fill="#ff8754" fill-opacity="1"><g transform="translate(226.280951, 276.734161)"><g><path d="M 8.046875 -15.65625 C 9.359375 -15.65625 10.410156 -15.253906 11.203125 -14.453125 C 12.003906 -13.648438 12.40625 -12.59375 12.40625 -11.28125 C 12.40625 -9.988281 12 -8.945312 11.1875 -8.15625 C 10.375 -7.363281 9.304688 -6.96875 7.984375 -6.96875 L 3.640625 -6.96875 C 3.566406 -6.96875 3.53125 -6.929688 3.53125 -6.859375 L 3.53125 -0.296875 C 3.53125 -0.0976562 3.429688 0 3.234375 0 L 2.234375 0 C 2.035156 0 1.9375 -0.0976562 1.9375 -0.296875 L 1.9375 -15.375 C 1.9375 -15.5625 2.035156 -15.65625 2.234375 -15.65625 Z M 7.859375 -8.296875 C 8.742188 -8.296875 9.460938 -8.566406 10.015625 -9.109375 C 10.566406 -9.648438 10.84375 -10.367188 10.84375 -11.265625 C 10.84375 -12.171875 10.566406 -12.898438 10.015625 -13.453125 C 9.460938 -14.003906 8.742188 -14.28125 7.859375 -14.28125 L 3.640625 -14.28125 C 3.566406 -14.28125 3.53125 -14.242188 3.53125 -14.171875 L 3.53125 -8.40625 C 3.53125 -8.332031 3.566406 -8.296875 3.640625 -8.296875 Z M 7.859375 -8.296875 "/></g></g></g><g fill="#ff8754" fill-opacity="1"><g transform="translate(240.226176, 276.734161)"><g><path d="M 11.421875 0 C 11.253906 0 11.148438 -0.0820312 11.109375 -0.25 L 10.21875 -2.96875 C 10.1875 -3.03125 10.144531 -3.0625 10.09375 -3.0625 L 3.4375 -3.0625 C 3.394531 -3.0625 3.359375 -3.03125 3.328125 -2.96875 L 2.453125 -0.25 C 2.410156 -0.0820312 2.304688 0 2.140625 0 L 1.078125 0 C 0.972656 0 0.894531 -0.0234375 0.84375 -0.078125 C 0.800781 -0.140625 0.796875 -0.222656 0.828125 -0.328125 L 5.75 -15.390625 C 5.789062 -15.554688 5.894531 -15.640625 6.0625 -15.640625 L 7.484375 -15.640625 C 7.648438 -15.640625 7.753906 -15.554688 7.796875 -15.390625 L 12.734375 -0.328125 C 12.753906 -0.304688 12.765625 -0.269531 12.765625 -0.21875 C 12.765625 -0.164062 12.738281 -0.113281 12.6875 -0.0625 C 12.632812 -0.0195312 12.566406 0 12.484375 0 Z M 3.828125 -4.484375 C 3.804688 -4.398438 3.832031 -4.359375 3.90625 -4.359375 L 9.65625 -4.359375 C 9.738281 -4.359375 9.765625 -4.398438 9.734375 -4.484375 L 6.84375 -13.625 C 6.820312 -13.6875 6.796875 -13.71875 6.765625 -13.71875 C 6.734375 -13.71875 6.710938 -13.6875 6.703125 -13.625 Z M 3.828125 -4.484375 "/></g></g></g><g fill="#ff8754" fill-opacity="1"><g transform="translate(254.5066, 276.734161)"><g><path d="M 2.390625 0 C 2.191406 0 2.09375 -0.0976562 2.09375 -0.296875 L 2.09375 -15.34375 C 2.09375 -15.539062 2.191406 -15.640625 2.390625 -15.640625 L 3.390625 -15.640625 C 3.523438 -15.640625 3.640625 -15.570312 3.734375 -15.4375 L 11.234375 -3.28125 C 11.265625 -3.238281 11.296875 -3.21875 11.328125 -3.21875 C 11.359375 -3.226562 11.375 -3.265625 11.375 -3.328125 L 11.375 -15.34375 C 11.375 -15.539062 11.46875 -15.640625 11.65625 -15.640625 L 12.671875 -15.640625 C 12.859375 -15.640625 12.953125 -15.539062 12.953125 -15.34375 L 12.953125 -0.296875 C 12.953125 -0.0976562 12.859375 0 12.671875 0 L 11.65625 0 C 11.53125 0 11.421875 -0.0664062 11.328125 -0.203125 L 3.796875 -12.40625 C 3.765625 -12.445312 3.734375 -12.460938 3.703125 -12.453125 C 3.679688 -12.453125 3.671875 -12.421875 3.671875 -12.359375 L 3.6875 -0.296875 C 3.6875 -0.0976562 3.585938 0 3.390625 0 Z M 2.390625 0 "/></g></g></g><g fill="#ff8754" fill-opacity="1"><g transform="translate(270.26193, 276.734161)"><g><path d="M 2.390625 0 C 2.191406 0 2.09375 -0.0976562 2.09375 -0.296875 L 2.09375 -15.34375 C 2.09375 -15.539062 2.191406 -15.640625 2.390625 -15.640625 L 3.390625 -15.640625 C 3.585938 -15.640625 3.6875 -15.539062 3.6875 -15.34375 L 3.6875 -0.296875 C 3.6875 -0.0976562 3.585938 0 3.390625 0 Z M 2.390625 0 "/></g></g></g><g fill="#ff8754" fill-opacity="1"><g transform="translate(276.765396, 276.734161)"><g><path d="M 6.921875 0.171875 C 5.867188 0.171875 4.9375 -0.0390625 4.125 -0.46875 C 3.320312 -0.894531 2.703125 -1.5 2.265625 -2.28125 C 1.828125 -3.070312 1.609375 -3.976562 1.609375 -5 L 1.609375 -10.640625 C 1.609375 -11.660156 1.828125 -12.5625 2.265625 -13.34375 C 2.703125 -14.125 3.320312 -14.726562 4.125 -15.15625 C 4.9375 -15.59375 5.867188 -15.8125 6.921875 -15.8125 C 7.984375 -15.8125 8.921875 -15.59375 9.734375 -15.15625 C 10.546875 -14.726562 11.171875 -14.125 11.609375 -13.34375 C 12.046875 -12.5625 12.265625 -11.660156 12.265625 -10.640625 L 12.265625 -5 C 12.265625 -3.976562 12.046875 -3.070312 11.609375 -2.28125 C 11.171875 -1.5 10.546875 -0.894531 9.734375 -0.46875 C 8.921875 -0.0390625 7.984375 0.171875 6.921875 0.171875 Z M 6.921875 -1.1875 C 8.054688 -1.1875 8.96875 -1.523438 9.65625 -2.203125 C 10.34375 -2.890625 10.6875 -3.800781 10.6875 -4.9375 L 10.6875 -10.65625 C 10.6875 -11.789062 10.34375 -12.703125 9.65625 -13.390625 C 8.96875 -14.085938 8.054688 -14.4375 6.921875 -14.4375 C 5.804688 -14.4375 4.90625 -14.085938 4.21875 -13.390625 C 3.53125 -12.703125 3.1875 -11.789062 3.1875 -10.65625 L 3.1875 -4.9375 C 3.1875 -3.800781 3.53125 -2.890625 4.21875 -2.203125 C 4.90625 -1.523438 5.804688 -1.1875 6.921875 -1.1875 Z M 6.921875 -1.1875 "/></g></g></g><g fill="#ff8754" fill-opacity="1"><g transform="translate(291.381021, 276.734161)"><g><path d="M 2.390625 0 C 2.191406 0 2.09375 -0.0976562 2.09375 -0.296875 L 2.09375 -15.34375 C 2.09375 -15.539062 2.191406 -15.640625 2.390625 -15.640625 L 3.390625 -15.640625 C 3.523438 -15.640625 3.640625 -15.570312 3.734375 -15.4375 L 11.234375 -3.28125 C 11.265625 -3.238281 11.296875 -3.21875 11.328125 -3.21875 C 11.359375 -3.226562 11.375 -3.265625 11.375 -3.328125 L 11.375 -15.34375 C 11.375 -15.539062 11.46875 -15.640625 11.65625 -15.640625 L 12.671875 -15.640625 C 12.859375 -15.640625 12.953125 -15.539062 12.953125 -15.34375 L 12.953125 -0.296875 C 12.953125 -0.0976562 12.859375 0 12.671875 0 L 11.65625 0 C 11.53125 0 11.421875 -0.0664062 11.328125 -0.203125 L 3.796875 -12.40625 C 3.765625 -12.445312 3.734375 -12.460938 3.703125 -12.453125 C 3.679688 -12.453125 3.671875 -12.421875 3.671875 -12.359375 L 3.6875 -0.296875 C 3.6875 -0.0976562 3.585938 0 3.390625 0 Z M 2.390625 0 "/></g></g></g></svg>